<?xml version="1.0" standalone="no"?>
<!DOCTYPE svg PUBLIC "-//W3C//DTD SVG 20010904//EN"
 "http://www.w3.org/TR/2001/REC-SVG-20010904/DTD/svg10.dtd">
<svg version="1.0" xmlns="http://www.w3.org/2000/svg"
 width="260.000000pt" height="260.000000pt" viewBox="0 0 260.000000 260.000000"
 preserveAspectRatio="xMidYMid meet">
<metadata>
Created by potrace 1.11, written by Peter Selinger 2001-2013
</metadata>
<g transform="translate(0.000000,260.000000) scale(0.100000,-0.100000)"
fill="#000000" stroke="none">
<path d="M106 2482 c-4 -7 10 -12 36 -14 l43 -3 3 -427 2 -428 -45 0 c-25 0
-45 -4 -45 -10 0 -6 90 -10 250 -10 160 0 250 4 250 10 0 6 -33 10 -80 10
l-80 0 0 174 0 173 93 6 c231 15 330 94 331 266 1 131 -43 193 -167 234 -54
18 -96 21 -323 25 -176 3 -264 1 -268 -6z m442 -38 c44 -29 54 -74 50 -228 -3
-110 -7 -148 -21 -173 -20 -38 -63 -63 -107 -63 l-30 0 0 246 0 247 43 -7 c23
-4 53 -14 65 -22z"/>
<path d="M1023 1700 c-127 -30 -211 -160 -183 -284 30 -136 169 -304 397 -479
34 -26 64 -47 67 -47 15 0 210 167 277 237 205 214 243 377 119 505 -107 110
-270 97 -366 -29 l-33 -43 -21 35 c-28 45 -95 92 -151 104 -50 12 -61 12 -106
1z"/>
<path d="M1650 900 c0 -5 14 -10 30 -10 l30 0 0 -355 0 -355 -30 0 c-16 0 -30
-4 -30 -10 0 -6 30 -10 70 -10 40 0 70 4 70 10 0 6 -11 10 -25 10 l-25 0 0
313 c0 171 -3 323 -6 337 -5 17 -3 22 3 15 6 -5 49 -156 98 -334 48 -179 89
-331 92 -338 4 -10 23 -13 72 -11 l66 3 75 325 c42 179 79 332 82 340 4 8 7
-135 7 -317 l1 -333 -30 0 c-16 0 -30 -4 -30 -10 0 -6 62 -10 166 -10 107 0
163 3 159 10 -3 6 -17 10 -31 10 l-24 0 0 355 0 355 30 0 c17 0 30 5 30 10 0
6 -55 10 -144 10 l-144 0 -30 -127 c-16 -71 -45 -192 -63 -271 -18 -78 -36
-139 -40 -135 -3 5 -32 109 -64 233 -32 124 -62 242 -68 263 l-9 37 -144 0
c-89 0 -144 -4 -144 -10z"/>
</g>
</svg>
